<?xml version="1.0" encoding="UTF-8" standalone="no"?>
<!DOCTYPE svg PUBLIC "-//W3C//DTD SVG 1.1//EN" "http://www.w3.org/Graphics/SVG/1.1/DTD/svg11.dtd">
<svg width="100%" height="100%" viewBox="0 0 448 173" version="1.1" xmlns="http://www.w3.org/2000/svg" xmlns:xlink="http://www.w3.org/1999/xlink" xml:space="preserve" xmlns:serif="http://www.serif.com/" style="fill-rule:evenodd;clip-rule:evenodd;stroke-linejoin:round;stroke-miterlimit:2;">
    <rect id="Artboard2" x="0" y="0" width="448" height="173" style="fill:none;"/>
    <g transform="matrix(5.45977,0,0,5.45977,-945.907,-688.245)">
        <g transform="matrix(7.32631,0,0,7.32631,212.112,139.363)">
            <path d="M0.038,-0l0,-0.043l0.088,-0.019l-0.01,0.015l0,-0.431l0.011,0.015l-0.089,-0.019l-0,-0.043l0.14,-0.007l0.011,0.098l-0.011,-0.004c0.03,-0.031 0.059,-0.056 0.088,-0.073c0.029,-0.017 0.06,-0.026 0.094,-0.026c0.021,0 0.044,0.003 0.067,0.01l-0.006,0.14l-0.05,0l-0.012,-0.099l0.009,0.018c-0.005,-0.001 -0.01,-0.002 -0.015,-0.003c-0.005,-0.001 -0.011,-0.001 -0.016,-0.001c-0.027,-0 -0.053,0.008 -0.078,0.024c-0.025,0.016 -0.048,0.037 -0.071,0.062l0.008,-0.024l0,0.363l-0.012,-0.015l0.109,0.019l0,0.043l-0.255,-0Z" style="fill-rule:nonzero;"/>
        </g>
        <g transform="matrix(7.32631,0,0,7.32631,215.13,139.363)">
            <path d="M0.276,0.009c-0.045,0 -0.084,-0.01 -0.119,-0.03c-0.034,-0.021 -0.061,-0.051 -0.08,-0.09c-0.019,-0.039 -0.029,-0.087 -0.029,-0.144c-0,-0.058 0.01,-0.108 0.03,-0.15c0.02,-0.042 0.048,-0.074 0.085,-0.097c0.037,-0.023 0.08,-0.035 0.129,-0.035c0.047,0 0.085,0.01 0.115,0.03c0.031,0.019 0.053,0.046 0.068,0.081c0.015,0.035 0.023,0.074 0.023,0.119c-0,0.007 -0,0.015 -0.001,0.022c-0.001,0.007 -0.002,0.016 -0.003,0.027l-0.385,-0l-0,-0.057l0.315,-0l-0.009,0.006c0.001,-0.03 -0.003,-0.058 -0.011,-0.083c-0.008,-0.025 -0.022,-0.046 -0.041,-0.061c-0.019,-0.015 -0.045,-0.023 -0.077,-0.023c-0.034,-0 -0.063,0.009 -0.086,0.027c-0.023,0.018 -0.041,0.043 -0.052,0.074c-0.011,0.031 -0.017,0.068 -0.017,0.109c0,0.044 0.006,0.082 0.019,0.114c0.013,0.031 0.031,0.056 0.055,0.073c0.025,0.017 0.055,0.026 0.09,0.026c0.025,-0 0.052,-0.005 0.081,-0.014c0.029,-0.01 0.06,-0.025 0.091,-0.045l0.029,0.045c-0.037,0.025 -0.075,0.044 -0.112,0.057c-0.037,0.013 -0.073,0.019 -0.108,0.019Z" style="fill-rule:nonzero;"/>
        </g>
        <g transform="matrix(7.32631,0,0,7.32631,219.138,139.363)">
            <path d="M0.038,-0l0,-0.043l0.09,-0.02l-0.012,0.015l0,-0.43l0.012,0.015l-0.09,-0.019l-0,-0.043l0.14,-0.007l0.011,0.098l-0.011,-0.004c0.033,-0.034 0.068,-0.059 0.104,-0.075c0.037,-0.016 0.071,-0.024 0.104,-0.024c0.044,0 0.08,0.014 0.109,0.041c0.029,0.027 0.044,0.068 0.043,0.125l0,0.323l-0.01,-0.014l0.088,0.019l0,0.043l-0.233,0l0,-0.043l0.087,-0.019l-0.012,0.015l0,-0.307c0,-0.041 -0.009,-0.072 -0.028,-0.091c-0.019,-0.019 -0.044,-0.029 -0.075,-0.029c-0.025,0 -0.052,0.007 -0.081,0.02c-0.029,0.013 -0.057,0.034 -0.085,0.062l0.007,-0.016l0,0.361l-0.01,-0.014l0.085,0.018l0,0.043l-0.233,0Z" style="fill-rule:nonzero;"/>
        </g>
        <g transform="matrix(7.32631,0,0,7.32631,223.775,139.363)">
            <path d="M0.276,0.009c-0.045,0 -0.084,-0.01 -0.119,-0.03c-0.034,-0.021 -0.061,-0.051 -0.08,-0.09c-0.019,-0.039 -0.029,-0.087 -0.029,-0.144c-0,-0.058 0.01,-0.108 0.03,-0.15c0.02,-0.042 0.048,-0.074 0.085,-0.097c0.037,-0.023 0.08,-0.035 0.129,-0.035c0.047,0 0.085,0.01 0.115,0.03c0.031,0.019 0.053,0.046 0.068,0.081c0.015,0.035 0.023,0.074 0.023,0.119c-0,0.007 -0,0.015 -0.001,0.022c-0.001,0.007 -0.002,0.016 -0.003,0.027l-0.385,-0l-0,-0.057l0.315,-0l-0.009,0.006c0.001,-0.03 -0.003,-0.058 -0.011,-0.083c-0.008,-0.025 -0.022,-0.046 -0.041,-0.061c-0.019,-0.015 -0.045,-0.023 -0.077,-0.023c-0.034,-0 -0.063,0.009 -0.086,0.027c-0.023,0.018 -0.041,0.043 -0.052,0.074c-0.011,0.031 -0.017,0.068 -0.017,0.109c0,0.044 0.006,0.082 0.019,0.114c0.013,0.031 0.031,0.056 0.055,0.073c0.025,0.017 0.055,0.026 0.09,0.026c0.025,-0 0.052,-0.005 0.081,-0.014c0.029,-0.01 0.06,-0.025 0.091,-0.045l0.029,0.045c-0.037,0.025 -0.075,0.044 -0.112,0.057c-0.037,0.013 -0.073,0.019 -0.108,0.019Z" style="fill-rule:nonzero;"/>
        </g>
        <g transform="matrix(7.32631,0,0,7.32631,227.6,139.363)">
            <path d="M0.603,-0.525l0.201,-0.007l0,0.044l-0.07,0.017l0.014,-0.012l-0.137,0.485l-0.088,0l-0.13,-0.472l0.016,0l-0.138,0.472l-0.088,0l-0.131,-0.483l0.012,0.012l-0.069,-0.013l-0,-0.043l0.216,-0.007l-0,0.044l-0.091,0.016l0.009,-0.01l0.111,0.435l-0.013,0l0.134,-0.479l0.087,-0.006l0.129,0.488l-0.013,0l0.117,-0.436l0.009,0.011l-0.087,-0.013l-0,-0.043Z" style="fill-rule:nonzero;"/>
        </g>
        <g transform="matrix(7.32631,0,0,7.32631,233.27,139.363)">
            <path d="M0.276,0.009c-0.045,0 -0.084,-0.01 -0.119,-0.03c-0.034,-0.021 -0.061,-0.051 -0.08,-0.09c-0.019,-0.039 -0.029,-0.087 -0.029,-0.144c-0,-0.058 0.01,-0.108 0.03,-0.15c0.02,-0.042 0.048,-0.074 0.085,-0.097c0.037,-0.023 0.08,-0.035 0.129,-0.035c0.047,0 0.085,0.01 0.115,0.03c0.031,0.019 0.053,0.046 0.068,0.081c0.015,0.035 0.023,0.074 0.023,0.119c-0,0.007 -0,0.015 -0.001,0.022c-0.001,0.007 -0.002,0.016 -0.003,0.027l-0.385,-0l-0,-0.057l0.315,-0l-0.009,0.006c0.001,-0.03 -0.003,-0.058 -0.011,-0.083c-0.008,-0.025 -0.022,-0.046 -0.041,-0.061c-0.019,-0.015 -0.045,-0.023 -0.077,-0.023c-0.034,-0 -0.063,0.009 -0.086,0.027c-0.023,0.018 -0.041,0.043 -0.052,0.074c-0.011,0.031 -0.017,0.068 -0.017,0.109c0,0.044 0.006,0.082 0.019,0.114c0.013,0.031 0.031,0.056 0.055,0.073c0.025,0.017 0.055,0.026 0.09,0.026c0.025,-0 0.052,-0.005 0.081,-0.014c0.029,-0.01 0.06,-0.025 0.091,-0.045l0.029,0.045c-0.037,0.025 -0.075,0.044 -0.112,0.057c-0.037,0.013 -0.073,0.019 -0.108,0.019Z" style="fill-rule:nonzero;"/>
        </g>
        <g transform="matrix(7.32631,0,0,7.32631,236.985,139.363)">
            <path d="M0.01,-0l0,-0.043l0.087,-0.016l-0.022,0.013l0.161,-0.234l0.019,-0.004l0.161,-0.241l0.112,-0.007l0,0.044l-0.086,0.019l0.025,-0.016l-0.157,0.223l-0.017,0.004l-0.171,0.258l-0.112,-0Zm0.305,-0l0,-0.043l0.074,-0.012l-0.005,0.012l-0.142,-0.207l-0.164,-0.235l0.02,0.016l-0.077,-0.013l0,-0.043l0.214,-0.007l0,0.044l-0.078,0.014l0.007,-0.014l0.133,0.194l0.173,0.248l-0.017,-0.012l0.085,0.015l0,0.043l-0.223,0Z" style="fill-rule:nonzero;"/>
        </g>
        <g transform="matrix(10.44,0,0,10.44,211.453,149.437)">
            <path d="M0.04,-0l0,-0.062l0.095,-0.025l-0.017,0.025l0,-0.575l0.023,0.027l-0.101,-0.025l-0,-0.062l0.206,-0.005l0.104,0c0.078,0 0.137,0.016 0.177,0.049c0.04,0.033 0.06,0.08 0.06,0.141c0,0.056 -0.017,0.102 -0.052,0.138c-0.034,0.036 -0.087,0.058 -0.159,0.065l0,-0.014c0.026,0.001 0.047,0.006 0.064,0.014c0.017,0.008 0.03,0.019 0.041,0.033c0.011,0.013 0.022,0.03 0.032,0.049l0.081,0.159l-0.035,-0.022l0.089,0.028l0,0.062l-0.15,0l-0.091,-0.194c-0.012,-0.027 -0.023,-0.047 -0.033,-0.061c-0.009,-0.015 -0.021,-0.025 -0.036,-0.03c-0.014,-0.006 -0.034,-0.009 -0.06,-0.008l-0.058,0l0.021,-0.018l0,0.249l-0.017,-0.025l0.106,0.025l0,0.062l-0.29,0Zm0.201,-0.348l-0.021,-0.031l0.087,0c0.051,0 0.089,-0.01 0.115,-0.031c0.027,-0.021 0.04,-0.052 0.04,-0.093c0,-0.035 -0.011,-0.063 -0.032,-0.082c-0.021,-0.019 -0.053,-0.029 -0.096,-0.029l-0.114,0l0.021,-0.019l0,0.285Z" style="fill-rule:nonzero;"/>
        </g>
        <g transform="matrix(10.44,0,0,10.44,218.124,149.437)">
            <path d="M0.295,-0.543c0.077,0 0.137,0.023 0.18,0.07c0.043,0.046 0.065,0.112 0.065,0.197c0,0.059 -0.011,0.11 -0.032,0.153c-0.021,0.043 -0.051,0.076 -0.09,0.099c-0.039,0.023 -0.085,0.035 -0.14,0.035c-0.077,0 -0.136,-0.023 -0.179,-0.069c-0.042,-0.046 -0.063,-0.112 -0.063,-0.198c-0,-0.059 0.01,-0.11 0.031,-0.153c0.021,-0.043 0.05,-0.076 0.089,-0.099c0.039,-0.023 0.085,-0.035 0.139,-0.035Zm-0.006,0.086c-0.042,0 -0.074,0.016 -0.096,0.049c-0.021,0.033 -0.032,0.081 -0.032,0.146c-0,0.065 0.01,0.112 0.031,0.142c0.021,0.03 0.051,0.045 0.092,0.045c0.029,0 0.054,-0.007 0.073,-0.022c0.019,-0.015 0.034,-0.037 0.044,-0.066c0.01,-0.029 0.015,-0.065 0.015,-0.107c0,-0.063 -0.011,-0.109 -0.033,-0.14c-0.021,-0.031 -0.053,-0.047 -0.094,-0.047Z" style="fill-rule:nonzero;"/>
        </g>
        <g transform="matrix(10.44,0,0,10.44,224.137,149.437)">
            <path d="M0.238,0.011c-0.044,0 -0.081,-0.014 -0.111,-0.042c-0.029,-0.029 -0.044,-0.072 -0.044,-0.13l0,-0.301l0.012,0.018l-0.083,-0.023l0,-0.062l0.191,-0.007l0,0.355c-0,0.034 0.008,0.059 0.023,0.076c0.016,0.016 0.037,0.024 0.063,0.024c0.02,-0 0.042,-0.005 0.066,-0.016c0.024,-0.011 0.048,-0.028 0.071,-0.051l-0.008,0.023l-0,-0.34l0.012,0.021l-0.083,-0.023l0,-0.062l0.191,-0.007l0,0.47l-0.016,-0.02l0.086,0.023l0,0.062l-0.164,0.007l-0.016,-0.098l0.016,0.006c-0.033,0.033 -0.067,0.057 -0.103,0.073c-0.036,0.016 -0.07,0.024 -0.103,0.024Z" style="fill-rule:nonzero;"/>
        </g>
        <g transform="matrix(10.44,0,0,10.44,230.694,149.437)">
            <path d="M0.221,0.011c-0.042,0 -0.074,-0.013 -0.097,-0.038c-0.023,-0.026 -0.034,-0.065 -0.034,-0.116l0,-0.325l0.017,0.017l-0.099,0l0,-0.065l0.1,-0.02l-0.018,0.021l0,-0.135l0.121,-0.021l0,0.156l-0.014,-0.017l0.154,0l-0.002,0.081l-0.152,0l0.014,-0.017l0,0.309c0,0.029 0.005,0.049 0.015,0.062c0.01,0.013 0.024,0.019 0.043,0.019c0.011,0 0.024,-0.002 0.037,-0.006c0.013,-0.004 0.028,-0.009 0.043,-0.015l0.023,0.066c-0.053,0.029 -0.103,0.044 -0.151,0.044Z" style="fill-rule:nonzero;"/>
        </g>
        <g transform="matrix(10.44,0,0,10.44,234.703,149.437)">
            <path d="M0.223,-0.072l-0.01,-0.011l0.08,0.021l0,0.062l-0.261,-0l0,-0.062l0.08,-0.021l-0.009,0.011l0,-0.384l0.008,0.009l-0.079,-0.02l0,-0.062l0.191,-0.007l0,0.464Zm-0.065,-0.552c-0.022,0 -0.04,-0.006 -0.053,-0.019c-0.013,-0.013 -0.02,-0.03 -0.02,-0.053c0,-0.025 0.007,-0.043 0.021,-0.055c0.014,-0.013 0.032,-0.019 0.053,-0.019c0.021,0 0.038,0.006 0.051,0.018c0.014,0.012 0.021,0.03 0.021,0.055c0,0.024 -0.007,0.042 -0.021,0.055c-0.014,0.012 -0.031,0.018 -0.052,0.018Z" style="fill-rule:nonzero;"/>
        </g>
        <g transform="matrix(10.44,0,0,10.44,237.949,149.437)">
            <path d="M0.032,-0l0,-0.062l0.086,-0.023l-0.015,0.018l0,-0.397l0.015,0.02l-0.086,-0.023l0,-0.062l0.164,-0.008l0.016,0.097l-0.016,-0.006c0.033,-0.033 0.067,-0.058 0.103,-0.073c0.036,-0.016 0.07,-0.024 0.103,-0.024c0.045,0 0.082,0.014 0.111,0.042c0.03,0.028 0.045,0.07 0.044,0.127l0,0.307l-0.012,-0.018l0.083,0.023l0,0.062l-0.256,0l0,-0.062l0.08,-0.021l-0.015,0.019l0,-0.284c0,-0.035 -0.008,-0.061 -0.024,-0.078c-0.015,-0.017 -0.036,-0.025 -0.062,-0.025c-0.02,0 -0.042,0.006 -0.066,0.017c-0.024,0.011 -0.048,0.027 -0.071,0.05l0.009,-0.019l0,0.339l-0.012,-0.019l0.077,0.021l0,0.062l-0.256,0Z" style="fill-rule:nonzero;"/>
        </g>
        <g transform="matrix(10.44,0,0,10.44,244.631,149.437)">
            <path d="M0.261,0.241c-0.081,0 -0.142,-0.011 -0.182,-0.034c-0.04,-0.022 -0.06,-0.054 -0.06,-0.097c-0,-0.032 0.011,-0.06 0.033,-0.083c0.022,-0.023 0.054,-0.042 0.097,-0.057l-0.001,0.024c-0.024,-0.001 -0.043,-0.007 -0.058,-0.017c-0.014,-0.011 -0.021,-0.025 -0.021,-0.042c-0,-0.005 0.001,-0.011 0.002,-0.017c0.002,-0.007 0.005,-0.015 0.01,-0.025c0.005,-0.011 0.012,-0.024 0.02,-0.039c0.009,-0.016 0.02,-0.036 0.034,-0.06l0.001,0.02c-0.031,-0.015 -0.055,-0.037 -0.072,-0.064c-0.017,-0.028 -0.025,-0.061 -0.025,-0.098c0,-0.061 0.02,-0.108 0.061,-0.143c0.041,-0.035 0.098,-0.052 0.171,-0.052c0.051,0 0.095,0.009 0.131,0.026l-0.029,-0.005l0.164,-0.007l0.001,0.068l-0.084,0.016l0.008,-0.014c0.011,0.012 0.02,0.027 0.026,0.044c0.006,0.017 0.009,0.036 0.009,0.059c0,0.061 -0.021,0.109 -0.063,0.144c-0.042,0.035 -0.098,0.052 -0.168,0.052c-0.036,0 -0.07,-0.005 -0.102,-0.016l0.023,-0.012l-0.02,0.115l-0.02,-0.01l0.198,0c0.066,0 0.116,0.013 0.15,0.039c0.035,0.025 0.052,0.062 0.052,0.111c0,0.056 -0.024,0.099 -0.072,0.129c-0.047,0.03 -0.119,0.045 -0.214,0.045Zm0.01,-0.087c0.056,0 0.097,-0.006 0.122,-0.019c0.026,-0.013 0.039,-0.032 0.039,-0.058c0,-0.023 -0.009,-0.041 -0.027,-0.053c-0.018,-0.011 -0.044,-0.017 -0.079,-0.017l-0.169,0l0.029,-0.007c-0.041,0.027 -0.062,0.056 -0.062,0.087c0,0.023 0.012,0.039 0.035,0.05c0.024,0.011 0.061,0.017 0.112,0.017Zm-0.006,-0.396c0.036,0 0.064,-0.009 0.083,-0.028c0.02,-0.019 0.03,-0.047 0.03,-0.084c-0,-0.037 -0.009,-0.064 -0.028,-0.081c-0.018,-0.018 -0.045,-0.027 -0.08,-0.027c-0.036,0 -0.063,0.009 -0.082,0.028c-0.019,0.019 -0.028,0.046 -0.028,0.082c0,0.036 0.009,0.063 0.026,0.082c0.018,0.019 0.044,0.028 0.079,0.028Z" style="fill-rule:nonzero;"/>
        </g>
    </g>
    <g>
        <path d="M47.953,114.129c9.927,3.13 17.133,12.416 17.133,23.371c-0,13.522 -10.978,24.5 -24.5,24.5c-13.522,0 -24.5,-10.978 -24.5,-24.5c-0,-10.955 7.206,-20.241 17.133,-23.371l-0.939,-0.775l-1.431,-1.734l-1.085,-1.997l-0.687,-2.213l-0.239,-2.362l-0,-14.054l-2.752,-0c-2.167,-0 -4.165,-1.168 -5.228,-3.056c-1.063,-1.887 -1.026,-4.201 0.097,-6.054l13.869,-22.884l-10.738,0c-3.314,0 -6,-2.686 -6,-6l-0,-35c-0,-3.314 2.686,-6 6,-6l35,-0c3.314,0 6,2.686 6,6l-0,11.754l0.177,-0.327l1.431,-1.733l1.733,-1.431l1.998,-1.084l2.213,-0.688l2.362,-0.239l60,-0l2.361,0.239l2.214,0.687l1.998,1.084l1.734,1.431l1.431,1.734l1.084,1.998l0.687,2.214l0.239,2.361l0,36.366l-0.239,2.362l-0.687,2.213l-1.084,1.998l-1.431,1.734l-1.734,1.431l-1.998,1.085l-2.214,0.687l-2.361,0.238l-22.572,0c1.005,0.992 1.646,2.325 1.766,3.777l2.208,26.663c2.676,-1.005 5.573,-1.554 8.598,-1.554c13.522,0 24.5,10.978 24.5,24.5c-0,13.522 -10.978,24.5 -24.5,24.5c-13.522,0 -24.5,-10.978 -24.5,-24.5c-0,-6.266 2.357,-11.985 6.233,-16.32l-24.322,-10.238c-1.997,-0.84 -3.385,-2.692 -3.633,-4.844c-0.247,-2.152 0.684,-4.271 2.438,-5.543l2.577,-1.869l-14.263,-19.367l-0.011,-0.015l-1.539,-2.866l-0.689,-3.12l0.176,-3.189l1.056,-3.078l1.86,-2.67l2.47,-2.026l2.924,-1.286l3.223,-0.451l44.252,0l-0,-12.87l-48.252,0l-2.362,-0.239l-2.213,-0.688l-1.998,-1.084l-1.733,-1.431l-1.431,-1.733l-0.177,-0.327l-0,10.754c-0,3.314 -2.686,6 -6,6l-12.738,0l13.869,22.884c1.123,1.853 1.16,4.167 0.097,6.054c-1.064,1.888 -3.062,3.056 -5.228,3.056l-2.752,-0l-0,14.054l-0.239,2.362l-0.688,2.213l-1.084,1.997l-1.431,1.734l-0.939,0.775Zm11.133,-96.129l-35,0l-0,35l35,0l-0,-35Zm-18.5,101c-10.211,0 -18.5,8.29 -18.5,18.5c-0,10.21 8.289,18.5 18.5,18.5c10.21,0 18.5,-8.29 18.5,-18.5c-0,-10.21 -8.29,-18.5 -18.5,-18.5Zm63.298,-34.886l-1.661,0l0.579,0.785l1.082,-0.785Zm-11.676,15.881l-7.469,5.417l25.784,10.854l-2.309,-27.88l-6.703,4.862l-11.182,-15.134l44.671,0c3.175,0 5.748,-2.573 5.748,-5.748l0,-36.366c0,-3.175 -2.573,-5.748 -5.748,-5.748l-60,-0c-3.172,-0 -5.748,2.576 -5.748,5.748c-0,3.172 2.576,5.748 5.748,5.748l54.252,0l-0,24.87c-0,0 -50.252,0 -50.252,0c-2.165,0 -4.146,1.217 -5.126,3.148c-0.98,1.93 -0.791,4.248 0.487,5.995l17.847,24.234Zm32.792,19.005c-10.21,0 -18.5,8.29 -18.5,18.5c-0,10.21 8.29,18.5 18.5,18.5c10.21,0 18.5,-8.29 18.5,-18.5c-0,-10.21 -8.29,-18.5 -18.5,-18.5Zm-90.162,-34.006l-0,20.054c-0,3.172 2.575,5.748 5.748,5.748c3.172,-0 5.748,-2.576 5.748,-5.748l-0,-20.054l8.752,-0l-14.5,-23.925l-14.5,23.925l8.752,-0Z" style="fill:#dcd3e6;fill-opacity:0.43;"/>
        <circle cx="125" cy="137.5" r="18.5" style="fill:#563f71;"/>
        <circle cx="40.586" cy="137.5" r="18.5" style="fill:#563f71;"/>
        <rect x="24.086" y="18" width="35" height="35" style="fill:#563f71;"/>
        <path d="M92.208,99.995l-17.847,-24.234c-1.278,-1.747 -1.467,-4.065 -0.487,-5.995c0.98,-1.931 2.961,-3.148 5.126,-3.148c-0,0 50.252,0 50.252,0l-0,-24.87l-54.252,0c-3.172,0 -5.748,-2.576 -5.748,-5.748c-0,-3.172 2.576,-5.748 5.748,-5.748l60,-0c3.175,-0 5.748,2.573 5.748,5.748l0,36.366c0,3.175 -2.573,5.748 -5.748,5.748l-44.671,0l11.182,15.134l6.703,-4.862l2.309,27.88l-25.784,-10.854l7.469,-5.417Z" style="fill:#2d213b;"/>
        <path d="M34.838,84.994l-8.752,-0l14.5,-23.925l14.5,23.925l-8.752,-0l-0,20.054c-0,3.172 -2.576,5.748 -5.748,5.748c-3.173,-0 -5.748,-2.576 -5.748,-5.748l-0,-20.054Z" style="fill:#2d213b;"/>
    </g>
</svg>
