<?xml version="1.0" encoding="UTF-8" standalone="no"?>
<!DOCTYPE svg PUBLIC "-//W3C//DTD SVG 1.1//EN" "http://www.w3.org/Graphics/SVG/1.1/DTD/svg11.dtd">
<svg width="100%" height="100%" viewBox="0 0 256 256" version="1.1" xmlns="http://www.w3.org/2000/svg" xmlns:xlink="http://www.w3.org/1999/xlink" xml:space="preserve" xmlns:serif="http://www.serif.com/" style="fill-rule:evenodd;clip-rule:evenodd;stroke-linejoin:round;stroke-miterlimit:2;">
    <rect id="Artboard3" x="0" y="0" width="256" height="256" style="fill:none;"/>
    <g>
        <path d="M72.953,170.864c15.684,4.946 27.07,19.617 27.07,36.926c-0,21.365 -17.346,38.71 -38.71,38.71c-21.365,-0 -38.71,-17.345 -38.71,-38.71c-0,-17.309 11.385,-31.98 27.069,-36.926l-1.483,-1.224l-2.261,-2.74l-1.713,-3.156l-1.087,-3.497l-0.377,-3.731l-0,-22.206l-4.348,0c-3.423,0 -6.58,-1.845 -8.26,-4.827c-1.68,-2.983 -1.622,-6.639 0.153,-9.566l21.913,-36.157l-16.966,0c-5.236,0 -9.48,-4.244 -9.48,-9.48l-0,-55.3c-0,-5.236 4.244,-9.48 9.48,-9.48l55.3,0c5.236,0 9.48,4.244 9.48,9.48l-0,18.571l0.28,-0.516l2.26,-2.739l2.74,-2.26l3.155,-1.714l3.497,-1.086l3.732,-0.378l94.8,0l3.731,0.377l3.497,1.086l3.157,1.713l2.74,2.261l2.261,2.74l1.713,3.157l1.086,3.497l0.377,3.731l0,57.459l-0.377,3.731l-1.086,3.497l-1.713,3.157l-2.261,2.74l-2.74,2.261l-3.157,1.713l-3.497,1.086l-3.731,0.377l-35.663,-0c1.588,1.567 2.599,3.672 2.789,5.966l3.489,42.128c4.228,-1.587 8.806,-2.455 13.585,-2.455c21.365,0 38.71,17.345 38.71,38.71c0,21.365 -17.345,38.71 -38.71,38.71c-21.364,-0 -38.71,-17.345 -38.71,-38.71c0,-9.9 3.725,-18.937 9.848,-25.785l-38.428,-16.176c-3.155,-1.328 -5.349,-4.254 -5.74,-7.654c-0.392,-3.401 1.081,-6.748 3.852,-8.758l4.071,-2.953l-22.535,-30.6l-0.017,-0.023l-2.433,-4.529l-1.089,-4.929l0.279,-5.04l1.669,-4.863l2.938,-4.218l3.903,-3.201l4.62,-2.032l5.092,-0.712l69.918,-0l0,-20.335l-76.238,-0l-3.732,-0.378l-3.497,-1.086l-3.155,-1.714l-2.74,-2.26l-2.26,-2.739l-0.28,-0.516l-0,16.991c-0,5.236 -4.244,9.48 -9.48,9.48l-20.126,0l21.913,36.157c1.774,2.927 1.833,6.583 0.153,9.566c-1.68,2.982 -4.837,4.827 -8.26,4.827l-4.348,0l-0,22.206l-0.378,3.731l-1.086,3.497l-1.714,3.156l-2.26,2.74l-1.484,1.224Zm17.59,-151.884l-55.3,0l-0,55.3l55.3,0l-0,-55.3Zm-29.23,159.58c-16.133,0 -29.23,13.098 -29.23,29.23c-0,16.132 13.097,29.23 29.23,29.23c16.132,0 29.23,-13.098 29.23,-29.23c-0,-16.132 -13.098,-29.23 -29.23,-29.23Zm100.011,-55.119l-2.625,-0l0.916,1.24l1.709,-1.24Zm-18.448,25.091l-11.801,8.56l40.739,17.149l-3.648,-44.051l-10.592,7.682l-17.667,-23.911l70.58,-0c5.016,-0 9.082,-4.066 9.082,-9.082l0,-57.459c0,-5.016 -4.066,-9.082 -9.082,-9.082l-94.8,0c-5.012,0 -9.082,4.07 -9.082,9.082c0,5.012 4.07,9.082 9.082,9.082l85.718,-0l0,39.295c0,-0 -79.398,-0 -79.398,-0c-3.421,-0 -6.551,1.922 -8.099,4.973c-1.548,3.05 -1.25,6.712 0.77,9.472l28.198,38.29Zm51.811,30.028c-16.132,0 -29.23,13.098 -29.23,29.23c0,16.132 13.098,29.23 29.23,29.23c16.133,0 29.23,-13.098 29.23,-29.23c0,-16.132 -13.097,-29.23 -29.23,-29.23Zm-142.456,-53.73l-0,31.686c-0,5.012 4.069,9.081 9.082,9.081c5.012,0 9.082,-4.069 9.082,-9.081l-0,-31.686l13.828,0l-22.91,-37.801l-22.91,37.801l13.828,0Z" style="fill:#dcd3e6;fill-opacity:0.43;"/>
        <circle cx="194.687" cy="207.79" r="29.23" style="fill:#563f71;"/>
        <circle cx="61.313" cy="207.79" r="29.23" style="fill:#563f71;"/>
        <rect x="35.243" y="18.98" width="55.3" height="55.3" style="fill:#563f71;"/>
        <path d="M142.876,148.532l-28.198,-38.29c-2.02,-2.76 -2.318,-6.422 -0.77,-9.472c1.548,-3.051 4.678,-4.973 8.099,-4.973c0,-0 79.398,-0 79.398,-0l0,-39.295l-85.718,-0c-5.012,-0 -9.082,-4.07 -9.082,-9.082c0,-5.012 4.07,-9.082 9.082,-9.082l94.8,0c5.016,0 9.082,4.066 9.082,9.082l0,57.459c0,5.016 -4.066,9.082 -9.082,9.082l-70.58,-0l17.667,23.911l10.592,-7.682l3.648,44.051l-40.739,-17.149l11.801,-8.56Z" style="fill:#2d213b;"/>
        <path d="M52.231,124.83l-13.828,0l22.91,-37.801l22.91,37.801l-13.828,0l-0,31.686c-0,5.012 -4.07,9.081 -9.082,9.081c-5.013,0 -9.082,-4.069 -9.082,-9.081l-0,-31.686Z" style="fill:#2d213b;"/>
    </g>
</svg>
